<svg width="750" height="500" viewBox="0 0 750 500" fill="none" xmlns="http://www.w3.org/2000/svg">
<g clip-path="url(#clip0_4_3)">
<path d="M750 0H0V500H750V0Z" fill="url(#paint0_linear_4_3)"/>
<path opacity="0.85" d="M510.201 272.109C517.2 228.056 487.162 186.671 443.109 179.672C399.056 172.674 357.671 202.712 350.672 246.764C343.674 290.817 373.712 332.203 417.764 339.201C461.817 346.2 503.203 316.162 510.201 272.109Z" fill="#FFEFC9"/>
<mask id="mask0_4_3" style="mask-type:luminance" maskUnits="userSpaceOnUse" x="0" y="0" width="750" height="500">
<path d="M750 0H0V500H750V0Z" fill="white"/>
</mask>
<g mask="url(#mask0_4_3)">
<path d="M518.691 73.152C518.691 73.152 44.023 47.794 0 45.176V66.191C27.694 66.704 518.691 73.152 518.691 73.152Z" fill="url(#paint1_linear_4_3)"/>
<path d="M293.743 104.459C293.743 104.459 768.411 79.101 812.434 76.483V97.498C784.74 98.011 293.743 104.459 293.743 104.459Z" fill="url(#paint2_linear_4_3)"/>
<path d="M-62.8071 265.026H264.147C266.962 263.579 363.292 225.381 195.713 214.041C189.711 213.635 183.857 214.18 178.265 214.437C182 212.32 184.134 209.885 184.134 207.292C184.134 199.144 163.127 192.538 137.214 192.538C131.38 192.538 125.799 192.875 120.646 193.487C120.164 193.252 119.681 193.023 119.199 192.793C126.377 189.527 130.759 185.177 130.759 180.401C130.759 170.258 111.006 162.035 86.6399 162.035C70.8729 162.035 57.0459 165.481 49.2449 170.659C46.0409 159.301 27.7329 150.595 5.62494 150.595C-18.7411 150.595 -38.4941 161.171 -38.4941 174.216C-38.4941 177.112 -37.5161 179.885 -35.7351 182.449C-43.0351 182.393 -50.2921 182.847 -57.5161 183.696L-55.2031 220.167C-62.7561 222.309 -67.1641 224.871 -67.1641 227.627C-67.1621 229.257 -65.6221 263.579 -62.8071 265.026Z" fill="url(#paint3_linear_4_3)"/>
<path d="M803.203 266.795L454.782 291.627C399.559 254.43 470.67 231.947 525.985 245.673C500.431 227.348 555.208 195.497 604.279 205.9C600.544 203.783 598.41 201.348 598.41 198.755C598.41 190.607 619.417 184.001 645.33 184.001C651.164 184.001 656.745 184.338 661.898 184.95C662.38 184.715 662.862 184.486 663.345 184.256C656.167 180.99 651.785 176.64 651.785 171.864C651.785 161.721 671.538 153.498 695.904 153.498C711.671 153.498 725.498 156.944 733.299 162.122C736.503 150.764 754.811 142.058 776.919 142.058C801.285 142.058 821.038 152.634 821.038 165.679C821.038 168.575 820.06 171.348 818.279 173.912C825.579 173.856 832.836 174.31 840.06 175.159L837.747 211.63C845.3 213.772 849.708 216.334 849.708 219.09C849.706 220.719 848.167 222.281 803.203 266.795Z" fill="url(#paint4_linear_4_3)"/>
<path d="M80.6969 131.602H343.317C343.322 131.555 343.34 131.509 343.34 131.462C343.34 127.177 322.694 123.623 295.643 122.953C301.14 121.627 304.329 120.059 304.329 118.377C304.329 114.419 286.713 111.086 262.708 110.072C262.734 109.966 262.761 109.86 262.761 109.753C262.761 104.99 237.255 101.128 205.793 101.128C174.331 101.128 148.825 104.989 148.825 109.753C148.825 109.835 148.851 109.915 148.866 109.997C123.892 110.912 105.339 114.316 105.339 118.378C105.339 119.399 106.518 120.378 108.669 121.287C107.029 121.254 105.36 121.236 103.662 121.236C82.6239 121.236 65.5699 123.818 65.5699 127.003C65.5709 128.881 71.5099 130.549 80.6969 131.602Z" fill="url(#paint5_linear_4_3)"/>
<path d="M382.651 170.216C381.521 170.208 380.384 170.203 379.238 170.203C359.898 170.203 342.603 171.375 331.056 173.217H576.338C579.004 172.281 580.475 171.265 580.475 170.203C580.475 165.537 552.293 161.755 517.53 161.755C508.799 161.755 500.485 161.994 492.927 162.425C490.271 161.426 486.248 160.514 481.167 159.729C486.7 158.273 490.022 156.414 490.022 154.387C490.022 149.721 472.431 145.939 450.732 145.939C429.032 145.939 411.441 149.721 411.441 154.387C411.441 155.391 412.26 156.354 413.756 157.248C388.738 158.365 370.689 161.531 370.689 165.264C370.69 167.114 375.134 168.824 382.651 170.216Z" fill="url(#paint6_linear_4_3)"/>
</g>
<mask id="mask1_4_3" style="mask-type:luminance" maskUnits="userSpaceOnUse" x="0" y="0" width="750" height="500">
<path d="M750 0H0V500H750V0Z" fill="white"/>
</mask>
<g mask="url(#mask1_4_3)">
<path d="M578.556 307.348C578.972 303.876 579.443 301.285 579.443 301.285L556.782 283.961L529.592 268.37L504.639 239.378L482.6 226.421C482.6 226.421 467.39 206.341 464.452 207.478C453.347 211.774 432.337 226.426 432.337 226.426L402.348 255.811L368.041 274.434L343.12 301.04C343.12 301.04 339.302 303.457 332.901 307.349H578.556V307.348Z" fill="#6FB4B0"/>
<path d="M369.071 261.616C369.597 257.98 370.192 255.268 370.192 255.268L341.527 237.13L307.134 220.806L275.57 190.451L247.692 176.885L224.735 157.051L191.52 182.178L146.178 207.656L102.782 227.154L71.259 255.011C71.259 255.011 66.429 257.542 58.333 261.617H369.071V261.616Z" fill="#6FB4B0"/>
<path d="M199.565 221.366L172.297 213.026L178.807 212.223L230.081 207.731L206.558 200.111V196.613L237.822 192.706L203.956 184.502L203.523 181.187L221.292 170.175L218.024 164.597C218.024 164.597 218.124 162.623 218.561 161.72L191.52 182.177L146.178 207.655L111.212 223.366C140.668 222.892 199.565 221.366 199.565 221.366Z" fill="#7ECCC7"/>
<path d="M819.2 232.574C816.692 230.699 814.393 228.533 812.119 226.306C798.323 218.503 784.595 210.43 770.472 203.827C769.531 203.485 768.591 203.139 767.654 202.776C761.414 200.364 756.847 196.875 752.043 190.718C744.054 180.477 730.415 156.828 730.415 156.828L695.052 129.451L681.756 101.001L676.312 103.269C676.312 103.269 653.068 129.242 646.478 134.895C637.815 142.326 623.429 167.366 615.107 175.606C611.623 179.056 604.6 183.924 597.278 189.18C593.898 194.526 590.632 200.02 587.153 205.249C584.137 209.783 580.949 214.121 577.383 217.84C573.773 221.605 569.378 223.895 566.017 228.086C562.903 231.97 560.664 237.262 558.01 241.727C554.462 247.696 550.07 252.763 545.856 257.819C543.011 261.233 540.114 264.569 537.174 267.831C555.262 265.602 573.355 263.636 591.457 262.136C642.872 257.875 694.104 258.818 745.347 260.53C764.961 261.185 834.458 258.723 850.312 257.29C849.336 256.532 848.363 255.767 847.396 254.992C837.986 247.446 828.772 239.731 819.2 232.574Z" fill="#6FB4B0"/>
<path d="M566.905 239.385C573.324 237.24 586.275 233.495 586.275 233.495L595.901 222.379L593.722 211.272L601.844 204.466L612.028 200.027L621.66 192.339L625.632 172.165V169.033L637.114 158.706L652.232 151.301L644.886 142.777L652.232 137.089L662.572 126.08L673.978 122.578L671.189 115.035C671.189 115.035 678.954 104.302 682.143 101.827L681.757 101L676.313 103.268C676.313 103.268 653.069 129.241 646.479 134.894C637.816 142.325 623.43 167.365 615.108 175.605C611.624 179.055 604.601 183.923 597.279 189.179C593.899 194.525 590.633 200.019 587.154 205.248C584.138 209.782 580.95 214.12 577.384 217.839C573.774 221.604 569.379 223.894 566.018 228.085C562.904 231.969 560.665 237.261 558.011 241.726C557.849 241.999 557.676 242.261 557.511 242.53C560.642 241.481 563.773 240.431 566.905 239.385Z" fill="#7ECCC7"/>
<path d="M726.061 235.932L703.734 212.049L659.001 196.114L624.026 172.041L599.182 158.705L580.232 179.152L488.334 241.974L412.021 276.361L369.414 301.2C369.414 301.2 357.053 306.244 348.895 313.16L599.347 356.935L761.199 343.155C761.199 320.172 761.172 244.209 761.172 244.209L726.061 235.932Z" fill="#89C9C7"/>
<path d="M389.291 297.279C402.597 294.217 415.622 290.552 429.275 288.789C441.994 287.147 467.526 284.476 467.526 284.476L438.373 273.451L508.752 267.521L494.216 253.208L527.764 246.275L555.048 230.54L539.979 220.776L637.114 207.753L588.631 198.95L576.638 194.15L585.904 189.145L587.294 179.091L591.386 167.117L580.233 179.152L488.335 241.974L412.022 276.361L369.415 298.483C369.415 298.483 363.56 298.515 359.809 302.475C369.749 301.431 379.566 299.517 389.291 297.279Z" fill="url(#paint7_linear_4_3)"/>
<path d="M70.165 235.932L47.838 212.049L3.10501 196.114L-31.87 172.041L-56.714 158.705L-75.663 179.152L-167.561 241.974L-243.874 276.361L-286.481 301.2C-286.481 301.2 -298.842 306.244 -307 313.16L-56.548 356.935L105.304 343.155C105.304 320.172 105.277 244.209 105.277 244.209L70.165 235.932Z" fill="#89C9C7"/>
<path d="M519.351 302.475C511.214 299.155 411.275 251.04 411.275 251.04L351.255 230.694L307.877 197.782L256.4 229.545L217.506 259.688L178.939 276.099L96.4031 335.308L691.211 376.455L519.351 302.475Z" fill="#89C9C7"/>
<path d="M150.283 302.475L184.817 285.991L221.654 271.736L260.525 259.426L237.083 252.881L263.835 241.412L268.007 227.959L280.592 222.281L303.949 216.849L296.145 208.313L310.82 206.799L303.666 203.589C303.676 203.547 303.689 203.502 303.707 203.447C304.042 202.455 304.229 201.247 304.308 199.983L256.398 229.545L217.504 259.688L178.937 276.099L108.571 326.578L150.283 302.475Z" fill="url(#paint8_linear_4_3)"/>
<path d="M297.483 293.602L269.07 279.85L209.697 253.97L182.03 218.827L130.342 184.66L102.463 152.246L66.6801 192.994L38.5081 217.951L-28.5969 234.612L-0.336924 326.578L350.37 335.308L297.483 293.602Z" fill="#89C9C7"/>
<path d="M22.9121 260.991L-10.7449 251.055V247.923L70.274 229.764L55.0031 217.556L59.4291 209.761L84.635 203.747L74.6671 200.425L73.8671 197.393L93.7621 182.286L90.5131 178.056V175.491L103.81 153.809L102.464 152.244L66.6811 192.992L38.5091 217.949L-28.5959 234.61L-19.9239 262.832C-5.44595 263.945 22.9121 260.991 22.9121 260.991Z" fill="url(#paint9_linear_4_3)"/>
<path d="M334.978 225.952L432.505 228.657L593.008 239.279L456.266 243.343L359.557 244.646L272.003 243.483L393.698 234.973L334.978 225.952Z" fill="url(#paint10_linear_4_3)"/>
<path d="M280.463 191.112L304.381 186.232L233.73 187.319L147.271 186.696L186.045 196.12L60.252 204.209H261.059L386.799 209.333L280.463 191.112Z" fill="url(#paint11_linear_4_3)"/>
</g>
<mask id="mask2_4_3" style="mask-type:luminance" maskUnits="userSpaceOnUse" x="0" y="0" width="750" height="500">
<path d="M750 0H0V500H750V0Z" fill="white"/>
</mask>
<g mask="url(#mask2_4_3)">
<path d="M157.829 307.675C155.33 306.95 152.908 306.497 150.687 306.284C150.709 306.123 150.723 305.96 150.723 305.795C150.723 302.898 147.296 300.549 143.069 300.549C142.638 300.549 142.218 300.579 141.806 300.626C141.949 300.21 142.025 299.78 142.025 299.34C142.025 295.775 137.118 292.885 131.066 292.885C126.951 292.885 123.369 294.223 121.496 296.199C120.931 292.092 115.89 288.877 109.75 288.877C107.729 288.877 105.828 289.226 104.165 289.84C104.25 289.527 104.3 289.206 104.3 288.877C104.3 285.98 100.873 283.631 96.646 283.631C95.163 283.631 93.7829 283.925 92.6099 284.425C90.7959 281.557 86.6319 279.548 81.7799 279.548C77.9879 279.548 74.6229 280.779 72.4629 282.684C69.7899 281.416 65.5609 280.593 60.7849 280.593C53.8399 280.593 48.0369 282.327 46.5329 284.651C45.1509 283.286 42.8509 282.391 40.2439 282.391C36.6419 282.391 33.6299 284.098 32.8149 286.395C31.7849 286.042 30.6269 285.838 29.3979 285.838C25.1709 285.838 21.7439 288.187 21.7439 291.084C21.7439 291.515 21.8279 291.931 21.9709 292.332L16.3279 294.722L-0.956055 300.363C-0.956055 300.363 11.9699 307.403 12.6039 308.424C13.2379 309.445 46.5669 315.914 46.5669 315.914C46.5669 315.914 80.3789 308.424 86.9459 312.894C91.0619 315.695 123.295 316.714 146.786 317.084C148.921 318.23 151.453 319.266 154.234 320.072C163.044 322.627 170.991 321.922 171.984 318.498C172.976 315.076 166.639 310.23 157.829 307.675Z" fill="#398E91"/>
<path d="M732.055 305.757C729.479 305.388 727.018 305.278 724.788 305.377C724.787 305.214 724.779 305.051 724.756 304.888C724.352 302.019 720.63 300.172 716.445 300.762C716.018 300.822 715.606 300.911 715.205 301.015C715.288 300.583 715.304 300.147 715.242 299.711C714.744 296.181 709.482 294.004 703.489 294.849C699.414 295.424 696.055 297.249 694.475 299.467C693.342 295.479 687.902 293 681.822 293.857C679.821 294.139 677.988 294.75 676.426 295.59C676.466 295.269 676.471 294.944 676.425 294.618C676.02 291.749 672.299 289.902 668.114 290.492C666.645 290.699 665.32 291.183 664.229 291.842C662.032 289.255 657.629 287.848 652.824 288.525C649.069 289.054 645.908 290.743 644.036 292.931C641.212 292.049 636.91 291.824 632.18 292.491C625.303 293.461 619.799 295.988 618.634 298.499C617.075 297.341 614.673 296.775 612.091 297.139C608.524 297.642 605.78 299.753 605.294 302.141C604.225 301.935 603.05 301.895 601.833 302.067C597.647 302.657 594.582 305.461 594.987 308.33C595.047 308.756 595.188 309.157 595.386 309.534L590.132 312.689L573.805 320.688C573.805 320.688 587.587 325.855 588.358 326.777C589.129 327.699 623.034 329.452 623.034 329.452C623.034 329.452 655.469 317.315 662.595 320.824C667.061 323.023 699.121 319.532 722.434 316.619C724.708 317.456 727.36 318.128 730.226 318.538C739.307 319.838 747.077 318.031 747.582 314.502C748.088 310.971 741.136 307.057 732.055 305.757Z" fill="#398E91"/>
<path d="M751.808 298.014C751.502 298.014 751.201 298.038 750.902 298.069C750.255 291.453 748.968 284.865 746.403 284.865C744.554 284.865 742.473 288.836 740.563 293.92C738.779 292.2 736.515 291.166 734.046 291.166C733.523 291.166 733.012 291.227 732.509 291.317C731.485 284.659 729.879 279.488 727.362 280.464C720.928 282.959 719.856 311.443 719.856 311.443C719.856 311.443 719.053 257.691 708.951 257.691C700.467 257.691 697.081 289.301 697.081 289.301C697.081 289.301 696.979 269.962 687.912 268.756C677.706 267.399 678.97 309.198 678.97 309.198C678.97 309.198 655.52 331.583 706.725 331.851C731.796 331.982 743.059 327.092 748.03 322.067C749.202 322.615 750.474 322.927 751.809 322.927C757.555 322.927 762.213 317.35 762.213 310.471C762.211 303.591 757.554 298.014 751.808 298.014Z" fill="#398E91"/>
<path d="M222.929 312.064C222.623 312.064 222.322 312.088 222.023 312.119C221.376 305.503 220.089 298.915 217.524 298.915C215.675 298.915 213.594 302.886 211.684 307.97C209.9 306.25 207.636 305.216 205.167 305.216C204.643 305.216 204.133 305.277 203.63 305.367C202.606 298.709 201 293.538 198.483 294.514C192.049 297.009 190.977 325.493 190.977 325.493C190.977 325.493 190.174 271.741 180.072 271.741C171.588 271.741 168.202 303.351 168.202 303.351C168.202 303.351 168.1 284.012 159.032 282.806C148.826 281.449 150.09 323.248 150.09 323.248C150.09 323.248 126.64 345.633 177.845 345.901C202.916 346.032 214.179 341.142 219.15 336.117C220.322 336.665 221.594 336.977 222.929 336.977C228.675 336.977 233.333 331.4 233.333 324.521C233.333 317.641 228.675 312.064 222.929 312.064Z" fill="#398E91"/>
<path d="M52.703 283.564C50.792 283.564 49.04 284.24 47.671 285.365C46.547 283.701 44.807 282.49 42.78 282.051C42.781 281.989 42.789 281.929 42.789 281.867C42.789 277.487 39.239 273.937 34.859 273.937C32.544 273.937 30.468 274.935 29.018 276.516C27.851 273.59 24.997 271.519 21.655 271.519C20.199 271.519 18.839 271.918 17.667 272.603C17.031 268.86 13.782 266.007 9.858 266.007C6.69 266.007 3.963 267.87 2.693 270.556C1.349 269.508 -0.337 268.878 -2.173 268.878C-5.717 268.878 -8.716 271.204 -9.732 274.411C-11.068 273.976 -12.491 273.733 -13.972 273.733C-17.831 273.733 -21.311 275.337 -23.798 277.907C-24.937 277.263 -26.25 276.89 -27.653 276.89C-31.987 276.89 -35.5 280.403 -35.5 284.737C-35.5 289.071 -31.987 292.584 -27.653 292.584C-27.316 292.584 -26.986 292.556 -26.659 292.514C-24.635 297.54 -19.723 301.092 -13.972 301.092C-9.966 301.092 -6.374 299.359 -3.872 296.615C-1.508 300.711 2.906 303.476 7.976 303.476C14.157 303.476 19.375 299.375 21.071 293.748C22.441 296.123 25 297.726 27.939 297.726C30.678 297.726 33.092 296.337 34.517 294.226C35.942 296.338 38.356 297.726 41.095 297.726C43.005 297.726 44.758 297.05 46.127 295.925C47.552 298.035 49.966 299.423 52.704 299.423C57.084 299.423 60.634 295.873 60.634 291.493C60.634 287.113 57.083 283.564 52.703 283.564Z" fill="#398E91"/>
<path d="M340.299 330.682C338.388 330.682 336.636 331.358 335.267 332.484C334.143 330.82 332.403 329.609 330.376 329.169C330.377 329.107 330.385 329.047 330.385 328.985C330.385 324.605 326.835 321.055 322.455 321.055C320.14 321.055 318.064 322.053 316.614 323.634C315.447 320.707 312.593 318.637 309.251 318.637C307.795 318.637 306.435 319.036 305.263 319.72C304.627 315.977 301.378 313.124 297.454 313.124C294.286 313.124 291.559 314.987 290.289 317.673C288.945 316.625 287.259 315.995 285.423 315.995C281.879 315.995 278.88 318.321 277.863 321.528C276.527 321.093 275.104 320.85 273.623 320.85C269.764 320.85 266.284 322.454 263.797 325.024C262.658 324.38 261.344 324.007 259.942 324.007C255.608 324.007 252.095 327.52 252.095 331.854C252.095 336.188 255.608 339.701 259.942 339.701C260.279 339.701 260.609 339.673 260.935 339.631C262.958 344.657 267.871 348.209 273.622 348.209C277.628 348.209 281.22 346.477 283.722 343.732C286.086 347.828 290.5 350.593 295.57 350.593C301.751 350.593 306.969 346.492 308.665 340.865C310.035 343.24 312.594 344.843 315.533 344.843C318.272 344.843 320.687 343.454 322.111 341.343C323.536 343.455 325.95 344.843 328.689 344.843C330.6 344.843 332.352 344.167 333.721 343.041C335.146 345.151 337.56 346.539 340.298 346.539C344.678 346.539 348.228 342.989 348.228 338.609C348.228 334.229 344.678 330.682 340.299 330.682Z" fill="#398E91"/>
<path d="M520.218 330.805C518.307 330.805 516.555 331.481 515.186 332.607C514.062 330.943 512.322 329.732 510.295 329.293C510.296 329.231 510.304 329.171 510.304 329.109C510.304 324.729 506.754 321.179 502.374 321.179C500.059 321.179 497.983 322.177 496.533 323.758C495.366 320.831 492.512 318.761 489.17 318.761C487.714 318.761 486.354 319.16 485.182 319.844C484.546 316.101 481.297 313.248 477.373 313.248C474.205 313.248 471.478 315.111 470.208 317.797C468.864 316.749 467.178 316.119 465.342 316.119C461.798 316.119 458.799 318.445 457.782 321.652C456.446 321.217 455.023 320.974 453.542 320.974C449.683 320.974 446.203 322.578 443.716 325.148C442.577 324.504 441.263 324.132 439.861 324.132C435.527 324.132 432.014 327.645 432.014 331.979C432.014 332.188 432.029 332.393 432.045 332.598C429.381 333.576 427.542 335.623 427.542 337.998C427.542 341.32 431.131 344.013 435.559 344.013C438.109 344.013 440.376 343.117 441.845 341.724C444.241 345.682 448.577 348.333 453.541 348.333C457.547 348.333 461.139 346.6 463.641 343.856C466.004 347.952 470.419 350.717 475.489 350.717C481.67 350.717 486.888 346.616 488.584 340.989C489.954 343.364 492.513 344.967 495.452 344.967C498.191 344.967 500.606 343.578 502.03 341.467C503.455 343.579 505.869 344.967 508.608 344.967C510.519 344.967 512.271 344.291 513.64 343.165C515.065 345.275 517.479 346.663 520.217 346.663C524.597 346.663 528.147 343.112 528.147 338.733C528.147 334.354 524.597 330.805 520.218 330.805Z" fill="#398E91"/>
<path d="M750 411.524L0 432.138V288.276L397.681 342.885L750 296.29V411.524Z" fill="#7BDB87"/>
<path d="M0.188 308.821L0 500H750V333.763L660.707 336.075L515.873 358.727L466.668 354.749L166.573 329.031L0.188 308.821Z" fill="#47B863"/>
<path d="M611.038 398.591C609.419 397.537 609.993 394.854 612.047 394.864C619.383 394.901 626.754 395.31 634.026 394.713C602.115 390.916 538.096 385.104 538.096 385.104C538.096 385.104 536.57 383.922 536.737 382.958C500.528 384.581 415.766 385.879 415.766 385.879C415.766 385.879 426.839 379.041 427.892 378.036C403.472 378.453 379.054 379.085 354.632 378.763C325.977 378.385 261.851 373.272 261.851 373.272L226.21 366.533L307.848 364.277L75.493 344.014L178.284 357.727L147.342 360.234C147.342 360.234 127.75 360.601 118.945 364.399C164.699 384.295 215.458 388.45 261.519 407.525C264.31 407.659 267.101 407.76 269.887 407.835C287.418 408.308 304.85 408.437 322.35 409.769C356.448 412.365 390.42 416.331 424.376 420.329C458.005 424.289 491.392 429.199 525.333 427.336C558.357 425.524 591.029 419.876 624.037 417.875C651.235 416.226 678.511 418.295 705.754 419.28C692.496 417.334 679.044 416.417 665.788 414.765C646.942 412.417 627.24 409.141 611.038 398.591Z" fill="#37914E"/>
<path d="M706.009 456.737C720.437 463.286 735.046 469.474 750 474.713V392.014L699.443 398.053L720.346 401.278L719.814 405.207L595.871 407.461C595.871 407.461 605.512 412.274 610.466 414.425C628.425 416.275 645.204 424.731 660.922 433.108C675.932 441.108 690.505 449.7 706.009 456.737Z" fill="#24704C"/>
<path d="M141.205 500H750V349.426C673.297 373.088 229.952 465.796 141.205 500Z" fill="#37914E"/>
<path d="M612.472 375.809L618.395 391.291L632.846 383.784L631.798 380.61L612.472 375.809Z" fill="#37914E"/>
<path d="M686.842 370.785L697.246 368.777L668.236 360.717L670.162 366.137L649.62 360.207L655.928 371.845L642.316 367.316C642.316 367.316 645.192 371.237 641.155 376.187C637.175 370.785 628.995 368.71 628.995 368.71C628.995 368.71 629.677 377.6 623.708 382.485C617.739 387.371 627.467 387.371 627.467 387.371L686.842 370.785Z" fill="#37914E"/>
<path d="M542.96 462.659H-65.835V312.085C10.868 335.746 454.212 428.454 542.96 462.659Z" fill="#37914E"/>
<path d="M71.6931 338.467L65.7701 353.949L51.3181 346.443L52.3671 343.269L71.6931 338.467Z" fill="#37914E"/>
<path d="M-2.67693 333.443L-13.0809 331.435L15.9291 323.375L14.0031 328.795L34.5451 322.865L28.2371 334.503L41.8491 329.974C41.8491 329.974 38.9731 333.895 43.0101 338.845C46.9901 333.443 55.1701 331.368 55.1701 331.368C55.1701 331.368 54.4881 340.258 60.4561 345.143C66.4251 350.029 56.6971 350.029 56.6971 350.029L-2.67693 333.443Z" fill="#37914E"/>
<path d="M397.681 342.885L0.00012207 288.276V432.138L0.0671221 432.136L0.00012207 500H750V411.524V333.763V296.29L397.681 342.885Z" fill="url(#paint12_radial_4_3)"/>
<path d="M749.466 449.938L220.522 407.955L0 392.117V527.841H750V450.105C749.822 450.05 749.466 449.938 749.466 449.938Z" fill="#00C758"/>
<path opacity="0.79" d="M363.899 457.853C363.864 457.904 363.823 457.949 363.786 457.997C363.943 457.941 364.1 457.884 364.258 457.83C364.139 457.84 364.019 457.844 363.899 457.853Z" fill="#35DB67"/>
<path opacity="0.68" d="M211.459 427.052C211.459 427.639 209.891 428.115 207.957 428.115C206.023 428.115 204.455 427.639 204.455 427.052C204.455 426.465 206.023 425.989 207.957 425.989C209.892 425.989 211.459 426.465 211.459 427.052Z" fill="#35DB67"/>
<path opacity="0.68" d="M456.648 467.169C456.648 467.756 455.08 468.232 453.146 468.232C451.212 468.232 449.644 467.756 449.644 467.169C449.644 466.582 451.212 466.106 453.146 466.106C455.08 466.106 456.648 466.582 456.648 467.169Z" fill="#35DB67"/>
<path opacity="0.68" d="M165.537 429.654C165.537 430.241 163.969 430.717 162.035 430.717C160.101 430.717 158.533 430.241 158.533 429.654C158.533 429.067 160.101 428.591 162.035 428.591C163.969 428.591 165.537 429.067 165.537 429.654Z" fill="#35DB67"/>
<path opacity="0.68" d="M570.418 463.976C570.418 464.563 568.85 465.039 566.916 465.039C564.982 465.039 563.414 464.563 563.414 463.976C563.414 463.389 564.982 462.913 566.916 462.913C568.85 462.913 570.418 463.389 570.418 463.976Z" fill="#35DB67"/>
<path opacity="0.68" d="M269.714 444.914C269.714 445.501 268.146 445.977 266.212 445.977C264.278 445.977 262.71 445.501 262.71 444.914C262.71 444.327 264.278 443.851 266.212 443.851C268.146 443.85 269.714 444.326 269.714 444.914Z" fill="#35DB67"/>
<path opacity="0.68" d="M319.743 438.561C319.743 439.148 318.175 439.624 316.241 439.624C314.307 439.624 312.739 439.148 312.739 438.561C312.739 437.974 314.307 437.498 316.241 437.498C318.175 437.497 319.743 437.974 319.743 438.561Z" fill="#35DB67"/>
<path opacity="0.68" d="M234.315 420.052C234.315 420.639 232.747 421.115 230.813 421.115C228.879 421.115 227.311 420.639 227.311 420.052C227.311 419.465 228.879 418.989 230.813 418.989C232.747 418.989 234.315 419.465 234.315 420.052Z" fill="#35DB67"/>
<path opacity="0.68" d="M69.905 456.639C69.905 457.226 68.337 457.702 66.403 457.702C64.469 457.702 62.901 457.226 62.901 456.639C62.901 456.052 64.469 455.576 66.403 455.576C68.337 455.576 69.905 456.052 69.905 456.639Z" fill="#35DB67"/>
<path opacity="0.68" d="M643.55 456.675C643.55 457.262 641.982 457.738 640.048 457.738C638.114 457.738 636.546 457.262 636.546 456.675C636.546 456.088 638.114 455.612 640.048 455.612C641.982 455.611 643.55 456.087 643.55 456.675Z" fill="#35DB67"/>
<path opacity="0.68" d="M228.4 424.572C229.733 424.572 230.813 424.228 230.813 423.803C230.813 423.378 229.733 423.034 228.4 423.034C227.067 423.034 225.987 423.378 225.987 423.803C225.987 424.228 227.067 424.572 228.4 424.572Z" fill="#35DB67"/>
<path opacity="0.68" d="M594.684 459.742C596.017 459.742 597.097 459.398 597.097 458.973C597.097 458.548 596.017 458.204 594.684 458.204C593.351 458.204 592.271 458.548 592.271 458.973C592.271 459.398 593.351 459.742 594.684 459.742Z" fill="#35DB67"/>
<path opacity="0.68" d="M501.74 466.377C501.74 466.802 500.66 467.146 499.327 467.146C497.994 467.146 496.914 466.801 496.914 466.377C496.914 465.952 497.994 465.608 499.327 465.608C500.66 465.608 501.74 465.952 501.74 466.377Z" fill="#35DB67"/>
<path opacity="0.68" d="M185.933 425.342C185.933 425.767 184.853 426.111 183.52 426.111C182.187 426.111 181.107 425.767 181.107 425.342C181.107 424.917 182.187 424.573 183.52 424.573C184.853 424.573 185.933 424.917 185.933 425.342Z" fill="#35DB67"/>
<path opacity="0.68" d="M283.421 444.619C284.754 444.619 285.834 444.275 285.834 443.85C285.834 443.425 284.754 443.081 283.421 443.081C282.088 443.081 281.008 443.425 281.008 443.85C281.008 444.275 282.088 444.619 283.421 444.619Z" fill="#35DB67"/>
<path opacity="0.68" d="M238.562 425.342C238.562 425.767 237.482 426.111 236.149 426.111C234.816 426.111 233.736 425.767 233.736 425.342C233.736 424.917 234.816 424.573 236.149 424.573C237.482 424.573 238.562 424.917 238.562 425.342Z" fill="#35DB67"/>
<path opacity="0.68" d="M219.982 429.654C221.315 429.654 222.395 429.31 222.395 428.885C222.395 428.46 221.315 428.116 219.982 428.116C218.649 428.116 217.569 428.46 217.569 428.885C217.569 429.31 218.649 429.654 219.982 429.654Z" fill="#35DB67"/>
<path opacity="0.68" d="M413.667 468.502C415 468.502 416.08 468.158 416.08 467.733C416.08 467.308 415 466.964 413.667 466.964C412.334 466.964 411.254 467.308 411.254 467.733C411.254 468.158 412.334 468.502 413.667 468.502Z" fill="#35DB67"/>
<path opacity="0.68" d="M31.26 451.472C32.5927 451.472 33.673 451.128 33.673 450.703C33.673 450.278 32.5927 449.934 31.26 449.934C29.9274 449.934 28.847 450.278 28.847 450.703C28.847 451.128 29.9274 451.472 31.26 451.472Z" fill="#35DB67"/>
<path opacity="0.68" d="M243.399 435.528C244.732 435.528 245.812 435.184 245.812 434.759C245.812 434.334 244.732 433.99 243.399 433.99C242.066 433.99 240.986 434.334 240.986 434.759C240.986 435.184 242.066 435.528 243.399 435.528Z" fill="#35DB67"/>
<path opacity="0.68" d="M529.009 461.588C529.009 462.013 527.929 462.357 526.596 462.357C525.263 462.357 524.183 462.013 524.183 461.588C524.183 461.163 525.263 460.819 526.596 460.819C527.929 460.819 529.009 461.164 529.009 461.588Z" fill="#35DB67"/>
<path opacity="0.68" d="M101.296 458.472C102.629 458.472 103.709 458.128 103.709 457.703C103.709 457.278 102.629 456.934 101.296 456.934C99.9634 456.934 98.8831 457.278 98.8831 457.703C98.8831 458.128 99.9634 458.472 101.296 458.472Z" fill="#35DB67"/>
<path opacity="0.68" d="M338.172 438.56C339.505 438.56 340.585 438.216 340.585 437.791C340.585 437.366 339.505 437.022 338.172 437.022C336.839 437.022 335.759 437.366 335.759 437.791C335.759 438.216 336.839 438.56 338.172 438.56Z" fill="#35DB67"/>
<path opacity="0.68" d="M227.568 432.47C227.568 433.057 226 433.533 224.066 433.533C222.132 433.533 220.564 433.057 220.564 432.47C220.564 431.883 222.132 431.407 224.066 431.407C226 431.407 227.568 431.883 227.568 432.47Z" fill="#35DB67"/>
<path opacity="0.68" d="M251.399 418.402C251.399 418.989 249.831 419.465 247.897 419.465C245.963 419.465 244.395 418.989 244.395 418.402C244.395 417.815 245.963 417.339 247.897 417.339C249.832 417.339 251.399 417.815 251.399 418.402Z" fill="#35DB67"/>
<path d="M13.5601 432.252C13.5601 432.252 169.188 447.641 196.993 452.555C243.372 455.227 266.77 459.166 287.57 459.98C282.035 458.978 177.025 447.287 177.025 447.287L113.41 438.368L216.599 442.204L155.046 437.806L118.774 433.718L13.5601 432.252Z" fill="#35DB67"/>
<path d="M362.69 430.642C380.361 432.698 392.957 434.04 392.957 434.04L455.222 438.086C455.222 438.086 391.051 438.975 389.842 439.518C420.88 439.743 451.912 440.42 482.945 441.044C491.176 441.21 499.408 441.363 507.639 441.499C459.388 436.114 411.04 429.914 362.69 430.642Z" fill="#35DB67"/>
<path d="M749.466 449.938L333.995 416.961C330.407 417.661 326.712 418.018 323.011 418.204C340.547 421.019 358.067 423.957 375.626 426.6C376.052 426.604 376.477 426.598 376.903 426.603C435.862 427.305 494.261 437.054 552.923 442.048C562.495 442.12 572.068 442.169 581.641 442.169C598.164 442.169 614.752 441.699 631.236 442.772C647.422 443.826 663.644 444.484 679.839 445.311C703.394 446.513 726.717 449.85 749.998 453.544V450.105C749.822 450.05 749.466 449.938 749.466 449.938Z" fill="#35DB67"/>
<path d="M666.131 464.867L673.43 468.523L710.494 478.977L634.948 477.328L599.925 474.41L672.826 491.553L695.17 503.692L566.384 490.558L592.128 502.383L493.441 507.692L541.774 520.386L585.347 527.841H750V469.309L666.131 464.867Z" fill="#009E46"/>
<path d="M514.769 521.588L436.21 511.623L356.4 507.77L278.987 498.333L330.337 493.131L266.46 483.062L127.351 478.127L0 469.385V527.841H541.774L514.769 521.588Z" fill="#009E46"/>
<path d="M122.508 402.13L156.203 383.299L152.101 390.805V397.941L168.166 390.805L178.355 388.274L171.47 395.252L169.825 399.215L184.547 397.106L201.394 390.806C201.394 390.806 193.715 399.521 198.215 403.894L206.39 406.943L220.432 397.106L215.957 412.126C215.957 412.126 211.07 418.502 207.95 418.913C204.83 419.323 131.501 412.18 131.501 412.18L122.508 402.13Z" fill="#00C758"/>
<path d="M35.118 396.099L68.813 377.268L64.711 384.774V391.91L80.776 384.774L90.966 382.243L84.081 389.22L82.436 393.183L97.158 391.074L114.005 384.774L102.061 394.592L119.001 400.911L133.043 391.074L128.568 406.094C128.568 406.094 123.681 412.47 120.561 412.881C117.441 413.291 44.112 406.148 44.112 406.148L35.118 396.099Z" fill="#00C758"/>
<path d="M180.412 477.996L176.026 471.792L190.751 480.578L188.711 471.792L199.479 478.672C199.479 478.672 193.649 469.556 187.753 466.419C187.753 466.419 196.166 465.373 206.06 478.906C206.06 478.906 205.577 475.142 215.46 469.707C215.46 469.707 210.518 479.59 212.001 480.579C212.001 480.579 223.76 468.075 231.223 466.42L225.773 479.606L223.366 483.544C223.366 483.544 235.226 476.779 238.685 474.973L234.732 483.544C234.732 483.544 223.366 489.968 196.681 491.451C169.996 492.932 180.412 477.996 180.412 477.996Z" fill="#009E46"/>
<path d="M594.298 488.93L591.387 483.572L602.294 491.963L601.497 484.768L609.43 491.267C609.43 491.267 605.644 483.451 601.24 480.394C601.24 480.394 608.044 480.354 614.653 492.073C614.653 492.073 614.623 489.028 623.013 485.628C623.013 485.628 618.142 493.039 619.23 493.967C619.23 493.967 629.782 485.11 635.886 484.496L630.298 494.491L628.008 497.403C628.008 497.403 638.099 493.13 641.026 492.017L637.066 498.476C637.066 498.476 627.401 502.524 605.993 501.188C584.587 499.852 594.298 488.93 594.298 488.93Z" fill="#009E46"/>
</g>
<path d="M434.824 166.998C436.147 166.459 437.672 166.254 439.158 166.636C439.898 166.82 440.622 167.165 441.235 167.656C441.878 168.123 442.371 168.745 442.83 169.385L441.457 169.74C441.553 168.842 441.8 168.102 442.161 167.358C442.525 166.631 443.037 165.973 443.663 165.47C444.291 164.978 444.996 164.587 445.75 164.417C446.113 164.285 446.504 164.281 446.873 164.211C447.249 164.181 447.628 164.19 447.999 164.178C447.631 164.251 447.262 164.303 446.905 164.391C446.557 164.519 446.192 164.58 445.873 164.762C445.199 165.033 444.633 165.494 444.168 165.999C443.707 166.515 443.376 167.128 443.175 167.778C442.978 168.414 442.883 169.148 442.92 169.738C442.945 170.131 442.647 170.469 442.255 170.494C442.013 170.509 441.792 170.402 441.652 170.226L441.548 170.093C441.264 169.518 440.954 168.934 440.501 168.473C440.074 167.985 439.531 167.598 438.919 167.328C437.697 166.773 436.217 166.688 434.824 166.998Z" fill="#6C9FB8"/>
<path d="M90.816 143.508C91.496 143.231 92.279 143.126 93.042 143.322C93.422 143.417 93.794 143.594 94.109 143.846C94.439 144.086 94.692 144.406 94.928 144.734L94.225 144.916C94.274 144.455 94.401 144.075 94.586 143.692C94.773 143.318 95.036 142.98 95.357 142.722C95.679 142.469 96.042 142.269 96.429 142.181C96.81 142.071 97.202 142.056 97.584 142.058C97.204 142.119 96.83 142.197 96.492 142.357C96.146 142.496 95.855 142.733 95.616 142.992C95.379 143.257 95.209 143.572 95.106 143.906C95.004 144.233 94.956 144.61 94.975 144.913C94.988 145.114 94.835 145.287 94.634 145.3C94.51 145.308 94.397 145.253 94.325 145.163L94.272 145.095C94 144.493 93.559 143.947 92.92 143.674C92.292 143.391 91.531 143.348 90.816 143.508Z" fill="#6C9FB8"/>
<path d="M316.504 159.578C317.927 159.7 319.378 160.211 320.528 161.226C321.103 161.727 321.592 162.363 321.914 163.079C322.274 163.788 322.43 164.565 322.548 165.344L321.164 165.036C321.658 164.28 322.215 163.733 322.875 163.235C323.53 162.753 324.286 162.4 325.071 162.236C325.854 162.083 326.66 162.056 327.409 162.248C327.792 162.296 328.142 162.47 328.503 162.575C328.852 162.72 329.185 162.9 329.521 163.058C329.16 162.955 328.808 162.834 328.45 162.75C328.082 162.706 327.729 162.595 327.362 162.611C326.638 162.546 325.924 162.699 325.281 162.938C324.636 163.188 324.063 163.583 323.588 164.071C323.123 164.547 322.705 165.158 322.47 165.7C322.314 166.061 321.894 166.227 321.533 166.071C321.31 165.975 321.162 165.779 321.118 165.558L321.086 165.392C321.094 164.75 321.084 164.089 320.89 163.473C320.731 162.844 320.424 162.252 320.002 161.733C319.164 160.683 317.885 159.935 316.504 159.578Z" fill="#6C9FB8"/>
<path d="M686.14 162.474C687.566 162.561 689.029 163.037 690.203 164.025C690.79 164.512 691.294 165.136 691.633 165.844C692.01 166.544 692.185 167.317 692.322 168.093L690.931 167.819C691.407 167.051 691.95 166.491 692.598 165.977C693.241 165.479 693.988 165.108 694.769 164.926C695.548 164.754 696.353 164.708 697.107 164.882C697.491 164.92 697.845 165.086 698.208 165.183C698.56 165.319 698.897 165.491 699.237 165.641C698.873 165.547 698.519 165.434 698.159 165.359C697.79 165.324 697.434 165.221 697.068 165.246C696.343 165.198 695.633 165.369 694.996 165.623C694.357 165.889 693.793 166.298 693.33 166.796C692.877 167.284 692.473 167.904 692.252 168.452C692.104 168.817 691.689 168.993 691.325 168.845C691.1 168.754 690.947 168.562 690.897 168.342L690.861 168.177C690.854 167.535 690.828 166.875 690.619 166.263C690.445 165.638 690.124 165.054 689.689 164.545C688.826 163.515 687.529 162.798 686.14 162.474Z" fill="#6C9FB8"/>
<path d="M369.351 207.811C367.938 208.012 366.584 208.614 365.636 209.565C365.159 210.034 364.788 210.588 364.56 211.195C364.298 211.786 364.215 212.442 364.152 213.08L364.103 213.237C363.985 213.612 363.585 213.821 363.21 213.703C362.979 213.631 362.809 213.447 362.742 213.232C362.569 212.667 362.221 212.013 361.812 211.489C361.394 210.952 360.869 210.495 360.255 210.175C359.642 209.866 358.95 209.635 358.223 209.619C357.86 209.562 357.497 209.634 357.127 209.637C356.761 209.68 356.399 209.762 356.028 209.824C356.379 209.704 356.73 209.562 357.093 209.457C357.463 209.393 357.831 209.258 358.216 209.253C358.982 209.146 359.78 209.262 360.541 209.501C361.303 209.751 362.015 210.185 362.613 210.737C363.213 211.306 363.706 211.911 364.113 212.717L362.703 212.869C362.907 212.108 363.149 211.353 363.585 210.688C363.985 210.012 364.541 209.434 365.168 209C366.424 208.12 367.923 207.774 369.351 207.811Z" fill="#6C9FB8"/>
<path d="M592.027 135.765C590.13 136.167 588.337 137.104 587.113 138.502C586.496 139.192 586.027 139.995 585.763 140.861C585.45 141.71 585.39 142.63 585.359 143.527C585.345 143.927 585.01 144.24 584.61 144.226C584.366 144.218 584.155 144.09 584.03 143.901L583.968 143.805C583.619 143.02 583.042 142.188 582.389 141.522C581.725 140.845 580.924 140.297 580.027 139.953C579.133 139.624 578.15 139.417 577.158 139.507C576.657 139.486 576.173 139.638 575.672 139.698C575.183 139.812 574.705 139.978 574.215 140.117C574.681 139.922 575.142 139.697 575.623 139.522C576.118 139.401 576.6 139.185 577.119 139.143C578.139 138.927 579.217 139.01 580.252 139.256C581.29 139.517 582.275 140.026 583.119 140.702C583.967 141.395 584.683 142.166 585.287 143.17L583.896 143.448C584.056 142.416 584.265 141.383 584.745 140.445C585.175 139.495 585.825 138.651 586.595 137.983C587.36 137.306 588.24 136.79 589.163 136.428C590.089 136.072 591.054 135.836 592.027 135.765Z" fill="#6C9FB8"/>
<path d="M234.645 174.708C233.327 174.161 231.855 173.989 230.555 174.325C229.906 174.485 229.304 174.773 228.798 175.18C228.272 175.556 227.866 176.077 227.486 176.595L227.364 176.705C227.071 176.968 226.621 176.944 226.358 176.652C226.196 176.472 226.144 176.227 226.195 176.008C226.334 175.433 226.367 174.694 226.283 174.034C226.197 173.359 225.978 172.698 225.613 172.11C225.243 171.532 224.765 170.98 224.148 170.597C223.865 170.363 223.516 170.24 223.196 170.054C222.859 169.905 222.506 169.79 222.155 169.655C222.519 169.731 222.893 169.787 223.258 169.882C223.609 170.015 223.994 170.087 224.328 170.279C225.042 170.577 225.669 171.083 226.202 171.677C226.731 172.28 227.122 173.017 227.355 173.796C227.582 174.591 227.697 175.363 227.637 176.264L226.346 175.676C226.909 175.125 227.502 174.598 228.216 174.249C228.905 173.871 229.677 173.657 230.438 173.603C231.968 173.482 233.435 173.947 234.645 174.708Z" fill="#6C9FB8"/>
<path d="M531.62 189.321C532.609 188.947 533.735 188.829 534.806 189.132C535.34 189.279 535.856 189.539 536.29 189.903C536.745 190.249 537.09 190.706 537.41 191.173L536.707 191.355C536.763 190.724 536.929 190.176 537.178 189.637C537.429 189.106 537.788 188.624 538.233 188.249C538.68 187.882 539.187 187.585 539.737 187.447C540.277 187.278 540.839 187.242 541.391 187.23C540.842 187.304 540.298 187.402 539.8 187.623C539.291 187.812 538.855 188.146 538.492 188.519C538.131 188.9 537.865 189.36 537.697 189.851C537.532 190.335 537.444 190.88 537.456 191.352L537.45 191.403C537.426 191.607 537.241 191.753 537.037 191.729C536.912 191.714 536.808 191.637 536.752 191.534C536.521 191.1 536.27 190.663 535.912 190.32C535.574 189.958 535.15 189.675 534.682 189.485C533.748 189.094 532.645 189.065 531.62 189.321Z" fill="#6C9FB8"/>
</g>
<defs>
<linearGradient id="paint0_linear_4_3" x1="375" y1="357.422" x2="375" y2="7.8215" gradientUnits="userSpaceOnUse">
<stop stop-color="#FFFED2"/>
<stop offset="0.1162" stop-color="#EEF7D7"/>
<stop offset="0.5288" stop-color="#B5E0E7"/>
<stop offset="0.8355" stop-color="#92D2F0"/>
<stop offset="1" stop-color="#85CDF4"/>
</linearGradient>
<linearGradient id="paint1_linear_4_3" x1="-43.4875" y1="53.5856" x2="533.013" y2="81.4035" gradientUnits="userSpaceOnUse">
<stop stop-color="white"/>
<stop offset="0.3511" stop-color="#DDEFFA" stop-opacity="0.6489"/>
<stop offset="0.7728" stop-color="#BADFF6" stop-opacity="0.2272"/>
<stop offset="1" stop-color="#ADD9F4" stop-opacity="0"/>
</linearGradient>
<linearGradient id="paint2_linear_4_3" x1="855.922" y1="84.8923" x2="279.421" y2="112.71" gradientUnits="userSpaceOnUse">
<stop stop-color="white"/>
<stop offset="0.3511" stop-color="#DDEFFA" stop-opacity="0.6489"/>
<stop offset="0.7728" stop-color="#BADFF6" stop-opacity="0.2272"/>
<stop offset="1" stop-color="#ADD9F4" stop-opacity="0"/>
</linearGradient>
<linearGradient id="paint3_linear_4_3" x1="124.103" y1="185.135" x2="92.284" y2="333.621" gradientUnits="userSpaceOnUse">
<stop stop-color="white"/>
<stop offset="0.3511" stop-color="#DDEFFA" stop-opacity="0.6489"/>
<stop offset="0.7728" stop-color="#BADFF6" stop-opacity="0.2272"/>
<stop offset="1" stop-color="#ADD9F4" stop-opacity="0"/>
</linearGradient>
<linearGradient id="paint4_linear_4_3" x1="629.336" y1="182.995" x2="661.45" y2="332.86" gradientUnits="userSpaceOnUse">
<stop stop-color="white"/>
<stop offset="0.3511" stop-color="#DDEFFA" stop-opacity="0.6489"/>
<stop offset="0.7728" stop-color="#BADFF6" stop-opacity="0.2272"/>
<stop offset="1" stop-color="#ADD9F4" stop-opacity="0"/>
</linearGradient>
<linearGradient id="paint5_linear_4_3" x1="202.005" y1="136.323" x2="230.843" y2="52.4289" gradientUnits="userSpaceOnUse">
<stop stop-color="white"/>
<stop offset="0.3511" stop-color="#DDEFFA" stop-opacity="0.6489"/>
<stop offset="0.7728" stop-color="#BADFF6" stop-opacity="0.2272"/>
<stop offset="1" stop-color="#ADD9F4" stop-opacity="0"/>
</linearGradient>
<linearGradient id="paint6_linear_4_3" x1="451.423" y1="184.442" x2="482.836" y2="93.0605" gradientUnits="userSpaceOnUse">
<stop stop-color="white"/>
<stop offset="0.3511" stop-color="#DDEFFA" stop-opacity="0.6489"/>
<stop offset="0.7728" stop-color="#BADFF6" stop-opacity="0.2272"/>
<stop offset="1" stop-color="#ADD9F4" stop-opacity="0"/>
</linearGradient>
<linearGradient id="paint7_linear_4_3" x1="508.228" y1="114.471" x2="497.225" y2="272.911" gradientUnits="userSpaceOnUse">
<stop stop-color="#F5FBFF"/>
<stop offset="1" stop-color="#A3D0ED"/>
</linearGradient>
<linearGradient id="paint8_linear_4_3" x1="203.179" y1="214.98" x2="217.5" y2="328.591" gradientUnits="userSpaceOnUse">
<stop stop-color="#F5FBFF"/>
<stop offset="1" stop-color="#A3D0ED"/>
</linearGradient>
<linearGradient id="paint9_linear_4_3" x1="77.0819" y1="139.749" x2="4.71276" y2="258.692" gradientUnits="userSpaceOnUse">
<stop stop-color="#F5FBFF"/>
<stop offset="1" stop-color="#A3D0ED"/>
</linearGradient>
<linearGradient id="paint10_linear_4_3" x1="272.003" y1="235.299" x2="593.008" y2="235.299" gradientUnits="userSpaceOnUse">
<stop stop-color="#F5FDFF"/>
<stop offset="1" stop-color="#A3DFED" stop-opacity="0"/>
</linearGradient>
<linearGradient id="paint11_linear_4_3" x1="60.2524" y1="197.782" x2="386.799" y2="197.782" gradientUnits="userSpaceOnUse">
<stop stop-color="#F5FDFF"/>
<stop offset="1" stop-color="#A3DFED" stop-opacity="0"/>
</linearGradient>
<radialGradient id="paint12_radial_4_3" cx="0" cy="0" r="1" gradientUnits="userSpaceOnUse" gradientTransform="translate(377.777 301.756) rotate(90) scale(108.71 351.307)">
<stop offset="0.1382" stop-color="#FFEFC9"/>
<stop offset="0.222" stop-color="#F8EFCA" stop-opacity="0.9028"/>
<stop offset="0.3461" stop-color="#E4F0CD" stop-opacity="0.7588"/>
<stop offset="0.4953" stop-color="#C3F0D1" stop-opacity="0.5857"/>
<stop offset="0.664" stop-color="#95F1D7" stop-opacity="0.3899"/>
<stop offset="0.8467" stop-color="#5BF3DF" stop-opacity="0.1779"/>
<stop offset="1" stop-color="#25F4E6" stop-opacity="0"/>
</radialGradient>
<clipPath id="clip0_4_3">
<rect width="750" height="500" fill="white"/>
</clipPath>
</defs>
</svg>
